<mxfile host="app.diagrams.net" modified="2023-04-03T06:16:40.847Z" agent="Mozilla/5.0 (Windows NT 10.0; Win64; x64) AppleWebKit/537.36 (KHTML, like Gecko) Chrome/111.0.0.0 Safari/537.36" etag="VLTp6UPUSubhX4Aj13Sv" version="21.1.2" type="github">
  <diagram name="Page-1" id="6Yms0Cm_Z3b0v5vB_ZyA">
    <mxGraphModel dx="880" dy="484" grid="1" gridSize="10" guides="1" tooltips="1" connect="1" arrows="1" fold="1" page="1" pageScale="1" pageWidth="850" pageHeight="1100" math="0" shadow="0">
      <root>
        <mxCell id="0" />
        <mxCell id="1" parent="0" />
        <mxCell id="pm11xwhGSD7cSUaGssjZ-7" style="edgeStyle=orthogonalEdgeStyle;rounded=0;orthogonalLoop=1;jettySize=auto;html=1;exitX=0.5;exitY=1;exitDx=0;exitDy=0;entryX=0.5;entryY=0;entryDx=0;entryDy=0;" edge="1" parent="1" source="pm11xwhGSD7cSUaGssjZ-1" target="pm11xwhGSD7cSUaGssjZ-2">
          <mxGeometry relative="1" as="geometry" />
        </mxCell>
        <mxCell id="pm11xwhGSD7cSUaGssjZ-1" value="START" style="rounded=1;whiteSpace=wrap;html=1;" vertex="1" parent="1">
          <mxGeometry x="365" y="190" width="120" height="60" as="geometry" />
        </mxCell>
        <mxCell id="pm11xwhGSD7cSUaGssjZ-8" style="edgeStyle=orthogonalEdgeStyle;rounded=0;orthogonalLoop=1;jettySize=auto;html=1;entryX=0.5;entryY=0;entryDx=0;entryDy=0;" edge="1" parent="1" source="pm11xwhGSD7cSUaGssjZ-2" target="pm11xwhGSD7cSUaGssjZ-3">
          <mxGeometry relative="1" as="geometry" />
        </mxCell>
        <mxCell id="pm11xwhGSD7cSUaGssjZ-2" value="Input&lt;br&gt;Bilangan" style="shape=parallelogram;perimeter=parallelogramPerimeter;whiteSpace=wrap;html=1;fixedSize=1;" vertex="1" parent="1">
          <mxGeometry x="360" y="280" width="120" height="60" as="geometry" />
        </mxCell>
        <mxCell id="pm11xwhGSD7cSUaGssjZ-11" style="edgeStyle=orthogonalEdgeStyle;rounded=0;orthogonalLoop=1;jettySize=auto;html=1;entryX=0.5;entryY=0;entryDx=0;entryDy=0;" edge="1" parent="1" source="pm11xwhGSD7cSUaGssjZ-3" target="pm11xwhGSD7cSUaGssjZ-5">
          <mxGeometry relative="1" as="geometry" />
        </mxCell>
        <mxCell id="pm11xwhGSD7cSUaGssjZ-18" style="edgeStyle=orthogonalEdgeStyle;rounded=0;orthogonalLoop=1;jettySize=auto;html=1;exitX=0;exitY=0.5;exitDx=0;exitDy=0;entryX=0.5;entryY=0;entryDx=0;entryDy=0;" edge="1" parent="1" source="pm11xwhGSD7cSUaGssjZ-3" target="pm11xwhGSD7cSUaGssjZ-4">
          <mxGeometry relative="1" as="geometry" />
        </mxCell>
        <mxCell id="pm11xwhGSD7cSUaGssjZ-3" value="%7 == 0" style="rhombus;whiteSpace=wrap;html=1;" vertex="1" parent="1">
          <mxGeometry x="370" y="370" width="100" height="110" as="geometry" />
        </mxCell>
        <mxCell id="pm11xwhGSD7cSUaGssjZ-15" style="edgeStyle=orthogonalEdgeStyle;rounded=0;orthogonalLoop=1;jettySize=auto;html=1;entryX=0;entryY=0.5;entryDx=0;entryDy=0;" edge="1" parent="1" source="pm11xwhGSD7cSUaGssjZ-4" target="pm11xwhGSD7cSUaGssjZ-6">
          <mxGeometry relative="1" as="geometry" />
        </mxCell>
        <mxCell id="pm11xwhGSD7cSUaGssjZ-4" value="CETAK&lt;br&gt;Bilangan Kelipatan 7" style="shape=parallelogram;perimeter=parallelogramPerimeter;whiteSpace=wrap;html=1;fixedSize=1;" vertex="1" parent="1">
          <mxGeometry x="208" y="521" width="170" height="60" as="geometry" />
        </mxCell>
        <mxCell id="pm11xwhGSD7cSUaGssjZ-16" style="edgeStyle=orthogonalEdgeStyle;rounded=0;orthogonalLoop=1;jettySize=auto;html=1;exitX=0.5;exitY=1;exitDx=0;exitDy=0;entryX=1;entryY=0.5;entryDx=0;entryDy=0;" edge="1" parent="1" source="pm11xwhGSD7cSUaGssjZ-5" target="pm11xwhGSD7cSUaGssjZ-6">
          <mxGeometry relative="1" as="geometry" />
        </mxCell>
        <mxCell id="pm11xwhGSD7cSUaGssjZ-5" value="CETAK&lt;br&gt;Bilangan BukanKelipatan 7" style="shape=parallelogram;perimeter=parallelogramPerimeter;whiteSpace=wrap;html=1;fixedSize=1;" vertex="1" parent="1">
          <mxGeometry x="472" y="510" width="180" height="60" as="geometry" />
        </mxCell>
        <mxCell id="pm11xwhGSD7cSUaGssjZ-6" value="END" style="rounded=1;whiteSpace=wrap;html=1;" vertex="1" parent="1">
          <mxGeometry x="365" y="600" width="120" height="60" as="geometry" />
        </mxCell>
        <mxCell id="pm11xwhGSD7cSUaGssjZ-19" value="YA" style="text;html=1;align=center;verticalAlign=middle;resizable=0;points=[];autosize=1;strokeColor=none;fillColor=none;" vertex="1" parent="1">
          <mxGeometry x="300" y="385" width="40" height="30" as="geometry" />
        </mxCell>
        <mxCell id="pm11xwhGSD7cSUaGssjZ-20" value="TIDAK" style="text;html=1;align=center;verticalAlign=middle;resizable=0;points=[];autosize=1;strokeColor=none;fillColor=none;" vertex="1" parent="1">
          <mxGeometry x="480" y="385" width="60" height="30" as="geometry" />
        </mxCell>
      </root>
    </mxGraphModel>
  </diagram>
</mxfile>
